# xmcd
#
# Track frame offsets: 
#        150
#        19363
#        37663
#        61269
#        75144
#        89992
#        103857
#        126483
#        140917
#
# Disc length: 2193 seconds
#
# Revision: 0
# Processed by: cddbd v1.5.2PL0 Copyright (c) Steve Scherf et al.
# Submitted via: ExactAudioCopyFreeDBPlugin 1.0
#
DISCID=7a088f09
DTITLE=Luke Blu Guthrie - routes and blu
DYEAR=2012
DGENRE=Blues
TTITLE0=Southern Time
TTITLE1=Blood From A Stone
TTITLE2=Helping Hand
TTITLE3=Keep On Shufflin
TTITLE4=Canadian Clearly
TTITLE5=Tough Gettin Up
TTITLE6=Slow Burn
TTITLE7=Outa The Blu
TTITLE8=Hold On To Heaven
EXTD=
EXTT0=
EXTT1=
EXTT2=
EXTT3=
EXTT4=
EXTT5=
EXTT6=
EXTT7=
EXTT8=
PLAYORDER=
